<?xml version="1.0" encoding="UTF-8" standalone="no"?>
<!-- Created with Inkscape (http://www.inkscape.org/) -->

<svg
   viewBox="0 0 4 4"><path
       d="m -3.2622155,2.0609341 c 0.061129,-0.038213 0.1035102,-0.1233549 0.1035102,-0.2227024 l 1.34e-5,-4.0251808 1.7524318,0.6161983 c 0.127622,0.044875 0.2570523,0.0051 0.2901975,-0.089166 0.033145,-0.094263 -0.042919,-0.2062814 -0.1705408,-0.2511563 l -1.9086519,-0.6711451 c -0.044428,-0.015622 -0.089082,-0.020962 -0.1298097,-0.017341 -0.00322,-2.405e-4 -0.00643,-3.471e-4 -0.00969,-3.471e-4 -0.028957,0 -0.056236,0.00965 -0.080284,0.026686 -8.63e-5,4.79e-5 -1.615e-4,1.084e-4 -2.477e-4,1.564e-4 -0.03304,0.01842 -0.058053,0.045565 -0.070165,0.080011 -0.00309,0.00879 -0.00517,0.017767 -0.0064,0.0268 -6.1e-6,4.49e-5 -2.43e-5,8.98e-5 -3.04e-5,1.347e-4 -0.012083,0.033138 -0.018976,0.07059 -0.018976,0.1103978 l -2.63e-5,4.1939439 c 0,0.1352818 0.078537,0.2441943 0.1760768,0.2441943 0.025909,0 0.050487,-0.00766 0.072597,-0.021484 z"
       transform="rotate(-147.72133)" /></svg>
